<?xml version="1.0" standalone="no"?>
<!DOCTYPE svg PUBLIC "-//W3C//DTD SVG 20010904//EN"
 "http://www.w3.org/TR/2001/REC-SVG-20010904/DTD/svg10.dtd">
<svg version="1.0" xmlns="http://www.w3.org/2000/svg"
 width="500.000000pt" height="500.000000pt" viewBox="0 0 500.000000 500.000000"
 preserveAspectRatio="xMidYMid meet">
<metadata>
Created by potrace 1.14, written by Peter Selinger 2001-2017
</metadata>
<g transform="translate(0.000000,500.000000) scale(0.100000,-0.100000)"
fill="#000000" stroke="none">
<path d="M2265 4913 c4 -9 -5 -11 -29 -9 -19 1 -33 -1 -30 -5 2 -4 -3 -10 -12
-13 -8 -3 -12 -2 -9 4 3 6 -1 10 -10 10 -9 0 -13 -4 -10 -10 4 -7 -2 -7 -19 0
-19 7 -24 6 -20 -3 3 -8 -15 -13 -63 -14 -36 -1 -69 -6 -72 -11 -3 -5 -14 -8
-23 -6 -10 1 -20 -2 -23 -6 -3 -5 -14 -7 -25 -5 -13 3 -18 0 -14 -7 5 -7 1 -9
-9 -5 -10 4 -17 1 -17 -6 0 -8 -4 -6 -10 3 -8 12 -10 12 -10 1 0 -8 -3 -11 -7
-8 -3 4 -13 1 -21 -6 -13 -9 -14 -9 -8 0 5 9 2 11 -8 7 -9 -3 -13 -11 -10 -16
4 -6 -3 -5 -15 1 -16 9 -21 9 -21 0 0 -6 -7 -8 -16 -5 -9 3 -12 2 -9 -5 4 -6
-1 -9 -11 -7 -11 2 -18 -2 -16 -10 2 -10 -2 -10 -18 -2 -11 6 -20 7 -19 3 3
-20 -3 -23 -23 -12 -20 11 -21 10 -11 -2 10 -12 8 -15 -7 -15 -10 0 -16 5 -14
11 3 5 0 3 -8 -6 -7 -9 -21 -15 -30 -13 -10 1 -18 -2 -18 -7 0 -5 -9 -9 -19
-9 -11 0 -23 -5 -26 -10 -4 -6 -11 -7 -17 -4 -7 5 -8 2 -3 -6 6 -10 3 -12 -13
-8 -14 4 -22 0 -25 -14 -5 -16 -9 -18 -26 -9 -16 9 -22 7 -33 -8 -13 -18 -18
-21 -39 -21 -5 0 -8 -4 -4 -9 3 -6 -4 -8 -16 -6 -15 3 -19 0 -15 -10 3 -9 -1
-12 -15 -10 -11 2 -22 -2 -26 -10 -3 -8 -9 -13 -13 -10 -4 3 -11 -2 -14 -11
-5 -14 -9 -14 -24 -3 -9 7 -14 10 -10 5 3 -4 -1 -16 -10 -26 -13 -16 -19 -17
-31 -7 -12 9 -13 9 -7 0 4 -8 2 -13 -4 -13 -6 0 -9 -4 -5 -9 3 -6 -4 -8 -15
-6 -12 2 -20 -1 -20 -10 0 -9 -6 -12 -15 -9 -8 4 -15 1 -15 -4 0 -6 -18 -21
-40 -33 -22 -13 -40 -26 -40 -30 0 -4 -9 -11 -20 -14 -11 -3 -20 -14 -20 -23
0 -15 -2 -15 -10 -2 -7 10 -10 11 -10 2 0 -7 -8 -16 -17 -19 -10 -4 -26 -17
-36 -30 -10 -13 -23 -20 -29 -17 -6 4 -8 2 -5 -3 4 -6 0 -16 -8 -23 -13 -11
-15 -10 -9 6 5 18 5 18 -6 1 -13 -20 -80 -89 -80 -82 0 3 -9 -4 -20 -15 -11
-11 -20 -25 -20 -31 0 -5 -4 -7 -10 -4 -5 3 -10 -2 -10 -11 0 -10 -3 -14 -7
-11 -3 4 -15 -7 -25 -24 -10 -16 -23 -27 -28 -24 -6 3 -10 1 -10 -5 0 -7 -11
-21 -25 -31 -14 -12 -22 -26 -18 -34 3 -8 0 -15 -6 -15 -6 0 -11 6 -11 13 0 8
-3 7 -10 -3 -5 -9 -5 -19 2 -27 8 -10 7 -12 -6 -7 -11 4 -16 1 -16 -11 0 -10
-5 -13 -12 -9 -8 5 -9 2 -5 -9 4 -10 2 -16 -6 -14 -7 1 -11 -4 -9 -12 2 -9 -3
-11 -14 -7 -14 5 -15 4 -4 -9 10 -12 10 -15 -4 -15 -9 0 -16 -7 -16 -15 0 -8
-5 -15 -11 -15 -6 0 -8 -7 -5 -16 6 -15 4 -15 -11 -3 -11 9 -14 10 -9 2 4 -8
2 -13 -4 -13 -6 0 -8 -5 -5 -11 4 -5 -5 -21 -18 -33 -14 -13 -23 -27 -20 -30
3 -3 1 -12 -5 -19 -7 -8 -8 -18 -4 -22 4 -5 3 -6 -3 -3 -9 5 -44 -22 -38 -29
6 -7 -10 -32 -17 -28 -5 3 -7 -6 -6 -19 2 -19 -1 -23 -13 -18 -14 5 -14 3 -3
-10 10 -13 10 -18 1 -24 -8 -4 -9 -3 -5 4 4 7 5 12 2 12 -3 0 -10 -10 -17 -21
-9 -17 -8 -20 3 -14 7 5 2 -4 -11 -18 -14 -15 -19 -27 -12 -27 7 0 9 -5 6 -10
-4 -6 -11 -7 -17 -4 -7 5 -9 0 -6 -14 4 -12 3 -20 -1 -17 -15 8 -31 -41 -18
-54 9 -9 8 -11 -6 -5 -10 3 -17 3 -16 -2 3 -20 -1 -35 -10 -30 -4 3 -6 -6 -3
-21 3 -18 1 -24 -6 -19 -8 5 -10 1 -5 -10 4 -11 -1 -22 -12 -30 -14 -10 -15
-14 -4 -14 10 -1 9 -3 -3 -11 -10 -5 -18 -15 -18 -20 0 -6 6 -7 12 -3 7 4 6
-1 -3 -12 -24 -29 -34 -48 -21 -40 8 5 10 2 6 -8 -3 -9 -10 -16 -15 -16 -5 0
-8 -3 -8 -7 4 -26 -2 -63 -10 -59 -5 4 -7 -4 -3 -16 4 -15 2 -19 -7 -13 -10 6
-11 3 -2 -14 9 -16 9 -21 0 -21 -7 0 -9 -3 -6 -7 4 -3 1 -13 -6 -21 -9 -13 -9
-14 1 -8 6 4 12 3 12 -2 0 -6 -7 -12 -15 -16 -8 -3 -15 -10 -15 -16 0 -6 5 -8
11 -4 8 4 8 0 0 -15 -7 -12 -9 -26 -6 -31 3 -6 1 -10 -5 -10 -8 0 -8 -6 0 -20
6 -12 7 -20 1 -20 -5 0 -11 6 -14 13 -2 6 -3 -8 -2 -33 1 -25 -2 -51 -8 -57
-6 -9 -5 -13 4 -13 10 0 10 -3 2 -11 -6 -6 -9 -18 -6 -27 5 -11 2 -13 -6 -7
-10 6 -11 3 -2 -14 8 -14 8 -21 1 -21 -5 0 -10 -5 -10 -11 0 -5 4 -8 8 -5 5 3
9 -1 9 -9 0 -8 -4 -12 -9 -9 -9 6 -5 -32 4 -42 4 -3 1 -15 -5 -26 -9 -16 -9
-22 1 -25 6 -3 9 -10 5 -16 -10 -16 -10 -197 -1 -190 5 2 8 -1 8 -6 0 -6 -4
-11 -10 -11 -5 0 -10 -5 -10 -11 0 -5 3 -8 8 -6 4 3 7 -12 7 -34 0 -21 -4 -39
-10 -39 -5 0 -2 -5 8 -11 13 -8 15 -15 8 -28 -7 -13 -5 -25 6 -41 9 -13 11
-20 5 -16 -7 4 -12 2 -12 -3 0 -6 4 -11 10 -11 5 0 7 -7 4 -15 -3 -8 -2 -20 2
-27 12 -19 12 -48 0 -48 -6 0 -4 -5 5 -10 11 -6 15 -18 11 -35 -2 -15 0 -25 7
-25 6 0 11 -5 11 -11 0 -5 -4 -7 -10 -4 -6 3 -7 -1 -4 -9 3 -9 11 -13 18 -9 6
4 5 -1 -3 -10 -10 -12 -10 -17 -2 -17 8 0 10 -8 6 -19 -3 -11 -1 -22 5 -26 5
-3 10 -20 10 -36 0 -19 4 -28 11 -24 6 4 10 1 8 -6 -1 -8 -1 -27 0 -44 1 -24
3 -27 12 -15 9 12 10 11 6 -7 -3 -14 0 -23 6 -23 8 0 7 -3 -1 -9 -11 -6 -10
-10 3 -15 12 -4 16 -14 13 -31 -3 -15 -1 -25 7 -25 6 0 12 -7 13 -15 1 -8 3
-22 4 -30 1 -8 5 -15 10 -15 5 0 7 -4 3 -9 -3 -5 2 -17 11 -25 11 -12 12 -16
2 -16 -10 0 -10 -3 2 -9 8 -6 17 -8 20 -6 4 2 7 -2 7 -10 0 -8 -4 -12 -9 -9
-4 3 -8 0 -8 -5 0 -6 3 -11 8 -11 8 0 42 -73 42 -90 0 -6 5 -10 11 -10 5 0 7
-5 4 -10 -3 -5 -1 -10 4 -10 6 0 10 -6 8 -12 -1 -7 4 -12 11 -10 8 1 11 -6 8
-24 -4 -22 -3 -24 10 -13 12 10 13 9 8 -6 -5 -12 -1 -23 11 -31 10 -8 16 -14
12 -14 -4 0 -3 -9 3 -20 6 -11 15 -18 20 -15 6 3 7 -1 4 -9 -4 -10 1 -18 11
-22 13 -5 14 -9 3 -15 -10 -7 -9 -9 5 -9 10 0 17 -8 17 -20 0 -11 5 -20 10
-20 6 0 10 -7 10 -16 0 -8 4 -12 10 -9 5 3 10 1 10 -4 0 -6 0 -13 0 -16 0 -3
13 -19 30 -37 16 -17 30 -37 30 -45 0 -8 4 -12 9 -9 5 3 11 -4 14 -15 3 -12
10 -18 16 -14 7 4 8 0 4 -11 -4 -11 -3 -15 5 -10 6 3 13 -3 17 -14 3 -11 13
-20 21 -20 8 0 12 -4 9 -10 -3 -5 -1 -10 5 -10 6 0 9 -4 6 -9 -3 -5 2 -15 12
-22 15 -13 16 -12 4 3 -10 12 -10 18 -1 24 7 4 9 3 5 -4 -3 -6 -1 -14 5 -17 5
-4 8 -13 5 -21 -3 -8 0 -13 7 -11 7 1 11 -3 10 -10 -2 -7 4 -10 12 -7 8 4 15
1 15 -6 0 -18 61 -72 75 -66 9 3 11 -2 7 -16 -4 -17 -2 -20 11 -15 11 4 14 2
11 -7 -3 -8 0 -17 7 -22 8 -4 10 -3 5 4 -5 8 -2 10 8 6 9 -3 13 -11 9 -17 -4
-7 0 -8 12 -3 16 6 16 4 4 -11 -8 -10 -9 -14 -2 -10 7 5 16 0 22 -11 5 -10 21
-24 35 -31 14 -8 23 -18 19 -24 -3 -5 0 -8 8 -5 7 2 24 -7 37 -21 13 -14 20
-19 16 -11 -4 9 2 6 13 -5 11 -11 18 -23 16 -28 -2 -4 -1 -7 4 -6 21 4 34 -2
27 -13 -4 -6 -3 -8 4 -4 6 3 17 -1 25 -9 9 -8 21 -15 27 -15 6 0 8 -5 5 -10
-3 -6 0 -10 9 -10 8 0 16 3 19 8 2 4 2 2 1 -5 -2 -6 5 -17 14 -25 13 -11 15
-11 8 2 -4 9 -2 8 7 -2 8 -10 16 -15 19 -13 3 3 11 -1 18 -10 7 -8 19 -15 26
-15 8 0 14 -5 14 -11 0 -5 5 -7 10 -4 6 3 10 1 10 -6 0 -9 3 -9 14 0 12 10 13
8 9 -10 -5 -18 -3 -20 16 -14 12 4 21 2 21 -4 0 -6 9 -11 19 -11 10 0 22 -7
25 -16 5 -14 9 -14 23 -3 9 8 14 9 10 3 -4 -7 0 -17 7 -23 9 -8 16 -8 20 -2 8
12 36 3 36 -11 0 -6 -8 -4 -17 3 -16 13 -17 12 -5 -3 8 -9 20 -14 28 -11 8 3
14 0 14 -7 0 -6 4 -9 9 -5 5 3 17 -2 25 -11 11 -10 16 -12 16 -3 0 7 9 4 22
-9 18 -16 27 -18 42 -10 14 8 17 7 12 -1 -4 -6 -2 -11 4 -11 6 0 9 -4 6 -9 -3
-4 6 -7 19 -5 14 1 25 -2 25 -8 0 -6 7 -8 15 -4 8 3 15 0 15 -6 0 -7 4 -7 14
1 11 9 15 8 20 -4 3 -9 10 -14 15 -11 5 4 12 0 14 -6 4 -10 6 -10 6 0 1 10 5
9 17 -3 9 -9 23 -14 30 -11 8 3 14 0 14 -6 0 -9 3 -9 12 0 7 7 17 12 22 12 6
0 4 -5 -4 -10 -12 -8 -10 -10 10 -11 51 -4 55 -5 52 -19 -3 -11 0 -11 12 -1
10 9 16 9 21 1 4 -7 18 -10 31 -7 17 3 24 0 24 -12 0 -14 2 -14 10 -1 5 8 10
11 10 6 0 -5 6 -3 14 3 11 9 16 9 22 0 5 -8 3 -9 -6 -4 -9 5 -11 4 -6 -4 6 -9
11 -9 21 -1 10 8 16 7 24 -7 6 -10 11 -14 11 -9 0 5 8 2 17 -5 11 -10 14 -10
9 -2 -4 7 -2 13 3 13 6 0 11 -4 11 -9 0 -5 9 -7 20 -4 12 3 29 -2 42 -13 12
-11 18 -13 14 -6 -9 16 6 16 23 0 11 -11 13 -10 7 0 -8 14 10 17 18 3 6 -9 69
-6 85 4 5 3 13 1 16 -5 5 -8 12 -7 23 2 9 7 13 8 9 2 -4 -7 18 -10 68 -10 40
0 71 5 68 9 -3 5 3 4 14 -2 14 -7 24 -7 33 2 10 9 11 9 6 0 -4 -7 -2 -13 3
-13 6 0 11 5 11 10 0 6 5 10 11 10 5 0 7 -4 4 -10 -4 -7 2 -7 19 0 14 5 28 5
31 1 3 -5 13 -8 23 -6 9 2 21 4 25 4 5 1 5 7 1 14 -4 6 -4 9 1 5 4 -4 15 -2
23 5 11 8 14 8 9 0 -4 -6 -3 -14 3 -18 5 -3 10 1 10 9 0 9 5 16 11 16 5 0 7
-4 4 -10 -3 -5 -1 -10 4 -10 6 0 11 6 11 13 0 9 2 9 9 -1 6 -11 11 -10 25 3 9
9 16 12 16 6 0 -5 9 -9 19 -8 11 0 17 5 14 10 -3 6 8 8 26 5 17 -2 31 0 31 5
0 5 6 4 14 -2 11 -10 17 -8 25 6 8 14 10 15 11 3 0 -13 2 -13 9 -1 5 8 16 11
25 8 9 -4 16 -2 16 4 0 6 5 7 10 4 6 -3 10 0 10 7 0 9 3 9 10 -2 8 -12 10 -12
10 -1 0 9 8 12 25 9 13 -3 22 -1 19 4 -3 5 0 9 7 7 26 -3 40 1 34 10 -3 6 4 8
16 6 13 -3 29 1 38 8 12 10 13 9 7 -3 -6 -13 -6 -13 6 0 7 9 23 15 35 14 12
-1 20 3 17 7 -5 9 9 13 40 9 11 -1 15 3 12 9 -4 6 -2 11 4 11 6 0 8 4 5 10 -3
6 1 7 10 3 13 -5 14 -7 3 -14 -7 -5 -8 -9 -3 -9 6 1 18 7 28 15 11 7 26 11 35
8 9 -4 13 -2 9 4 -4 6 4 14 18 17 17 4 23 11 19 19 -4 7 -4 9 1 5 4 -4 14 -3
22 4 11 9 12 7 8 -8 -5 -14 -3 -13 7 4 11 18 16 20 27 10 8 -8 11 -8 8 -2 -4
7 1 18 10 25 14 12 15 12 9 1 -7 -11 -4 -12 13 -3 11 7 21 15 21 20 0 4 6 8
13 9 30 2 48 9 60 22 9 11 8 11 -8 0 -19 -14 -19 -14 -6 3 10 13 17 15 27 6
11 -9 14 -8 14 4 0 9 5 19 12 23 7 5 8 3 3 -5 -5 -10 -2 -9 13 0 12 7 18 17
15 22 -3 4 3 7 13 5 11 -2 18 2 17 7 -1 6 8 12 20 12 11 1 25 9 29 18 5 8 14
12 20 9 8 -5 9 -1 4 11 -5 14 -4 15 7 7 10 -8 17 -5 31 13 11 14 26 25 34 25
8 0 23 10 33 22 11 11 19 17 19 13 0 -4 12 5 26 21 15 16 23 23 19 16 -6 -11
-3 -11 13 -1 12 7 20 15 18 19 -1 3 8 15 21 27 13 12 23 17 23 11 0 -15 15 0
15 15 0 7 8 11 18 11 14 -2 15 1 6 12 -9 11 -8 14 6 14 23 0 188 167 172 174
-7 2 -1 5 12 5 16 1 21 5 18 15 -4 10 -1 13 7 10 8 -3 17 0 22 7 4 8 3 10 -4
5 -7 -4 -12 -2 -12 3 0 10 14 15 33 12 5 -1 6 3 2 9 -3 5 -1 10 4 10 6 0 10 6
8 13 -1 6 3 11 10 10 8 -2 10 4 6 14 -4 10 -2 14 5 9 6 -3 13 -2 17 4 3 5 0
10 -7 11 -7 0 -5 4 5 8 10 4 18 10 17 15 -1 4 6 13 14 19 9 7 17 22 19 33 3
23 31 56 40 47 3 -3 9 7 13 21 3 15 9 25 12 22 9 -10 34 33 26 46 -4 6 -3 8 4
4 6 -3 13 -2 17 4 3 5 0 10 -7 11 -7 0 -3 4 9 9 15 6 21 15 18 30 -2 11 -1 20
3 20 4 0 13 9 20 21 8 12 9 19 4 15 -5 -3 -9 1 -9 9 0 8 3 14 6 13 28 -3 33 2
20 19 -10 12 -10 14 -1 9 7 -4 15 -1 18 8 3 9 11 13 18 9 7 -5 7 -2 -1 8 -10
12 -8 19 8 33 11 9 18 23 15 31 -2 7 2 16 11 19 10 4 14 15 11 31 -4 20 -3 23
8 14 10 -8 12 -6 9 10 -2 12 0 21 5 21 5 0 7 9 5 20 -2 11 0 18 4 15 14 -8 20
32 7 46 -8 9 -8 10 2 5 6 -4 12 -2 12 4 0 6 5 8 10 5 6 -3 10 -1 10 4 0 6 -5
11 -11 11 -6 0 -3 7 5 16 9 8 14 20 11 25 -4 5 -2 9 4 9 5 0 8 8 6 18 -1 9 2
22 7 29 5 7 6 18 2 24 -4 7 -3 9 3 6 6 -4 14 0 17 9 3 8 2 12 -4 9 -6 -3 -7 1
-4 9 3 9 10 14 14 11 5 -3 6 4 3 15 -3 11 1 28 8 37 10 12 10 14 2 9 -7 -4
-13 -3 -13 2 0 6 8 13 17 16 15 6 15 8 3 16 -11 7 -11 10 -2 10 8 0 11 9 8 25
-3 14 -1 23 5 20 5 -4 9 2 9 12 0 11 6 25 13 32 8 10 8 12 0 7 -13 -7 -12 31
1 52 4 7 2 12 -6 12 -9 0 -10 3 -2 8 15 10 30 57 15 48 -16 -10 -13 0 5 18 10
10 11 16 3 16 -8 0 -8 5 2 17 8 9 9 14 3 10 -6 -3 -11 0 -11 8 0 8 4 12 9 9 4
-3 8 1 8 10 0 8 -6 17 -12 19 -7 3 -4 6 7 6 14 1 16 4 7 13 -8 8 -8 17 -1 31
8 14 8 18 0 13 -8 -5 -8 0 -1 18 6 16 6 27 -1 31 -5 4 -6 12 -2 18 12 18 10
291 -2 299 -6 5 -5 8 3 8 9 0 10 5 4 18 -5 9 -8 27 -7 40 1 12 -3 22 -8 22 -5
0 -4 7 3 15 7 9 8 15 2 15 -5 0 -8 10 -4 22 4 16 2 19 -9 13 -8 -5 -5 2 5 14
16 17 17 21 4 16 -13 -5 -15 -2 -11 14 3 14 1 21 -8 21 -11 0 -11 2 1 10 12 8
12 10 -5 11 -11 0 -15 3 -9 5 11 5 6 64 -5 64 -10 0 -8 31 3 48 4 7 4 12 -1
11 -4 -1 -15 -1 -23 0 -13 1 -13 3 -1 10 12 8 12 13 3 24 -7 8 -9 23 -5 32 5
14 3 16 -7 10 -10 -6 -12 -4 -7 8 3 9 2 19 -3 22 -15 9 -12 37 3 30 6 -4 4 0
-5 8 -10 8 -15 17 -11 20 3 4 -2 7 -13 8 -10 0 -14 3 -7 5 7 3 9 12 6 20 -3 7
-8 12 -12 10 -4 -3 -7 3 -8 12 -3 47 -8 70 -15 66 -4 -3 -9 4 -9 15 -1 12 -2
27 -3 34 -1 6 -10 17 -21 24 -11 7 -14 12 -7 13 6 0 12 5 12 11 0 5 -4 7 -10
4 -5 -3 -10 1 -10 10 0 9 -5 13 -11 9 -7 -4 -7 1 1 16 7 12 8 20 2 16 -5 -3
-16 2 -23 11 -12 14 -12 15 0 9 8 -6 7 0 -4 18 -10 14 -14 26 -10 26 5 0 -1 8
-12 18 -11 9 -19 25 -17 34 1 10 -1 16 -4 15 -4 -1 -8 2 -9 6 -1 5 -10 15 -20
23 -17 13 -17 14 2 7 13 -5 8 4 -15 25 -24 22 -29 30 -15 26 18 -6 17 -5 -2
10 -13 10 -23 22 -23 28 0 6 -10 19 -22 29 -11 11 -16 19 -9 19 9 0 8 5 -3 15
-8 8 -20 15 -26 15 -6 0 -9 4 -6 9 3 4 -4 17 -15 27 -11 10 -18 23 -15 30 2 6
-6 17 -19 24 -14 7 -22 17 -19 22 3 4 -2 8 -10 8 -9 0 -16 9 -16 20 0 11 -7
20 -16 20 -8 0 -13 3 -11 8 7 10 -19 32 -27 24 -4 -3 -4 1 0 11 5 13 1 17 -16
17 -11 0 -18 5 -15 10 3 6 1 10 -4 10 -6 0 -11 5 -11 10 0 14 -37 50 -52 50
-6 0 -9 3 -5 6 8 8 -25 44 -35 38 -4 -3 -8 0 -8 6 0 15 -26 41 -34 33 -3 -4
-6 -1 -6 6 0 7 -4 9 -10 6 -5 -3 -10 1 -10 9 0 9 -5 16 -11 16 -5 0 -7 4 -4
10 3 6 -1 7 -9 4 -11 -4 -16 0 -16 10 0 9 -7 16 -15 16 -8 0 -15 5 -15 11 0 5
-4 8 -9 5 -9 -6 -26 22 -22 37 1 5 -3 6 -8 2 -6 -3 -18 3 -27 14 -10 11 -24
17 -32 13 -10 -3 -13 -1 -8 6 4 7 1 12 -8 12 -9 0 -16 5 -16 10 0 6 -7 10 -16
10 -8 0 -12 5 -9 10 3 6 -1 10 -11 10 -9 0 -28 12 -42 28 -13 15 -21 21 -18
15 5 -9 2 -11 -8 -7 -9 3 -13 10 -10 15 3 5 -4 9 -15 9 -11 0 -22 4 -26 10 -3
5 -20 19 -37 32 -17 12 -28 17 -24 10 4 -7 3 -12 -3 -12 -5 0 -13 10 -16 21
-4 12 -10 18 -14 13 -3 -5 -12 -10 -20 -12 -12 -3 -12 -1 -1 13 7 9 9 15 4 14
-16 -2 -54 13 -54 23 0 5 -4 6 -10 3 -5 -3 -10 -1 -10 5 0 6 -4 9 -9 5 -5 -3
-13 -1 -16 5 -5 8 -11 7 -21 -1 -12 -10 -13 -9 -8 5 5 12 2 15 -12 9 -13 -5
-15 -3 -9 7 6 10 3 12 -13 8 -12 -4 -25 -1 -29 4 -4 7 -1 8 7 3 9 -6 11 -4 6
4 -5 7 -14 10 -22 7 -8 -3 -14 -1 -14 5 0 6 -4 7 -10 4 -5 -3 -10 -1 -10 5 0
7 -7 9 -16 6 -10 -4 -13 -2 -8 6 5 8 2 9 -9 5 -10 -3 -17 -2 -17 3 0 6 -12 10
-26 10 -17 0 -23 4 -18 13 5 7 0 6 -11 -3 -15 -12 -17 -12 -10 -1 6 11 4 13
-8 8 -9 -3 -23 1 -32 10 -9 9 -26 13 -41 10 -19 -3 -24 -1 -20 10 3 8 1 11 -4
8 -6 -3 -10 0 -10 7 0 10 -2 10 -9 -1 -7 -11 -9 -11 -14 0 -3 8 -6 9 -6 2 -1
-6 -10 -9 -22 -6 -16 5 -18 8 -7 15 9 7 7 8 -9 5 -12 -3 -24 0 -27 7 -3 8 -5
8 -5 -1 -1 -13 -41 -5 -41 8 0 5 -5 9 -11 9 -5 0 -7 -4 -4 -10 3 -6 -1 -7 -9
-4 -9 3 -13 10 -10 15 3 5 -2 6 -11 3 -8 -4 -21 -2 -28 3 -6 5 -26 9 -44 9
-17 -1 -29 2 -27 6 2 3 -12 5 -31 3 -27 -3 -35 0 -35 13 0 13 -3 13 -16 -4
-14 -17 -15 -17 -10 -1 4 11 2 16 -5 12 -5 -4 -17 -1 -25 6 -12 10 -13 9 -7
-7 5 -15 4 -17 -8 -8 -8 6 -24 10 -36 9 -13 -1 -23 2 -23 6 0 5 -7 5 -17 2 -9
-4 -14 -2 -10 3 7 12 -83 12 -102 0 -10 -6 -12 -5 -7 2 4 7 2 12 -3 12 -6 0
-11 -4 -11 -10 0 -5 -5 -10 -11 -10 -5 0 -7 5 -4 10 3 6 2 10 -4 10 -5 0 -12
-6 -14 -12 -4 -10 -6 -10 -6 0 -1 6 -8 12 -17 12 -9 0 -12 -5 -8 -12 5 -7 3
-8 -7 -2 -21 13 -178 16 -159 3 12 -9 11 -9 -5 -4 -39 13 -85 11 -85 -4 0 -11
-4 -10 -16 5 -8 10 -13 14 -9 7z m1919 -4142 c3 -5 -2 -15 -12 -22 -15 -12
-16 -12 -5 2 7 9 10 19 6 22 -3 4 -4 7 0 7 3 0 8 -4 11 -9z m-1460 -669 c3 -5
-1 -9 -9 -9 -8 0 -12 4 -9 9 3 4 7 8 9 8 2 0 6 -4 9 -8z"/>
</g>
</svg>
